<?xml version="1.0" encoding="UTF-8" standalone="no"?>
<!-- Created with Inkscape (http://www.inkscape.org/) -->

<svg
   xmlns:dc="http://purl.org/dc/elements/1.1/"
   xmlns:cc="http://creativecommons.org/ns#"
   xmlns:rdf="http://www.w3.org/1999/02/22-rdf-syntax-ns#"
   xmlns:svg="http://www.w3.org/2000/svg"
   xmlns="http://www.w3.org/2000/svg"
   xmlns:sodipodi="http://sodipodi.sourceforge.net/DTD/sodipodi-0.dtd"
   xmlns:inkscape="http://www.inkscape.org/namespaces/inkscape"
   width="60"
   height="60"
   id="svg3091"
   version="1.1"
   inkscape:version="0.48.5 r10040"
   sodipodi:docname="ball_blue.svg"
   inkscape:export-filename="C:\Users\kish\ball.png"
   inkscape:export-xdpi="90"
   inkscape:export-ydpi="90">
  <defs
     id="defs3093" />
  <sodipodi:namedview
     id="base"
     pagecolor="#ffffff"
     bordercolor="#666666"
     borderopacity="1.0"
     inkscape:pageopacity="0.0"
     inkscape:pageshadow="2"
     inkscape:zoom="5.6"
     inkscape:cx="3.8956976"
     inkscape:cy="28.482286"
     inkscape:document-units="px"
     inkscape:current-layer="layer1"
     showgrid="true"
     inkscape:window-width="1858"
     inkscape:window-height="1058"
     inkscape:window-x="54"
     inkscape:window-y="-8"
     inkscape:window-maximized="1"
     showborder="true"
     borderlayer="false"
     inkscape:showpageshadow="true">
    <inkscape:grid
       type="xygrid"
       id="grid3099"
       empspacing="4"
       visible="true"
       enabled="true"
       snapvisiblegridlinesonly="true" />
  </sodipodi:namedview>
  <metadata
     id="metadata3096">
    <rdf:RDF>
      <cc:Work
         rdf:about="">
        <dc:format>image/svg+xml</dc:format>
        <dc:type
           rdf:resource="http://purl.org/dc/dcmitype/StillImage" />
        <dc:title></dc:title>
      </cc:Work>
    </rdf:RDF>
  </metadata>
  <g
     inkscape:label="Layer 1"
     inkscape:groupmode="layer"
     id="layer1"
     transform="translate(0,-992.36217)">
    <path
       d="m 240,172.36218 c 0,22.09139 -17.90861,40 -40,40 -22.09139,0 -40,-17.90861 -40,-40 0,-22.09139 17.90861,-40 40,-40 22.09139,0 40,17.90861 40,40 z"
       sodipodi:ry="40"
       sodipodi:rx="40"
       sodipodi:cy="172.36218"
       sodipodi:cx="200"
       id="path3057"
       style="fill:#eeeeee;fill-opacity:1;stroke:none"
       sodipodi:type="arc"
       transform="matrix(0.70588235,0,0,0.70588235,-111.17647,900.68571)" />
    <path
       id="path3059"
       d="m 46.102941,999.15629 c 3.193737,4.57511 5.07353,10.14431 5.07353,16.14711 0,15.5939 -12.641372,28.2353 -28.235294,28.2353 -5.9838,0 -11.536087,-1.8762 -16.102941,-5.0515 5.10295,7.31 13.570588,12.1103 23.161764,12.1103 15.593923,0 28.235294,-12.6414 28.235294,-28.2353 0,-9.6101 -4.797868,-18.1062 -12.132353,-23.20591 z"
       style="fill:#cccccf;fill-opacity:1;stroke:none"
       inkscape:connector-curvature="0" />
    <path
       style="font-size:medium;font-style:normal;font-variant:normal;font-weight:normal;font-stretch:normal;text-indent:0;text-align:start;text-decoration:none;line-height:normal;letter-spacing:normal;word-spacing:normal;text-transform:none;direction:ltr;block-progression:tb;writing-mode:lr-tb;text-anchor:start;baseline-shift:baseline;color:#000000;fill:#666666;fill-opacity:1;stroke:none;stroke-width:5;marker:none;visibility:visible;display:inline;overflow:visible;enable-background:accumulate;font-family:Sans;-inkscape-font-specification:Sans"
       d="m 30,992.36218 c -16.54764,0 -30,13.45232 -30,30.00002 0,16.5476 13.45236,30 30,30 16.54764,0 30,-13.4524 30,-30 0,-16.5477 -13.45236,-30.00002 -30,-30.00002 z m 0,3.52941 c 14.640205,0 26.470588,11.83041 26.470588,26.47061 0,14.6402 -11.830383,26.4706 -26.470588,26.4706 -14.640204,0 -26.470588,-11.8304 -26.470588,-26.4706 0,-14.6402 11.830384,-26.47061 26.470588,-26.47061 z"
       id="path3061"
       inkscape:connector-curvature="0" />
  </g>
</svg>
